<svg width="41" height="30" viewBox="0 0 41 30" fill="none" xmlns="http://www.w3.org/2000/svg">
<path d="M38.913 25.3851L7.52924 17.4297L3.14449 13.055L3.98626 2.09112L7.47616 3.00984L9.74869 9.93843L15.3862 11.4225L15.4307 0.5L19.4575 1.56007C19.4575 1.56007 20.1915 4.43012 22.0976 13.1893C24.8996 13.9269 27.1647 14.53 29.1374 15.0552L29.1399 15.0559C30.661 15.4608 32.0082 15.8195 33.2937 16.1579C34.9859 18.188 37.1694 21.0173 38.7338 23.0444C38.9477 23.3215 39.15 23.5836 39.3378 23.8267L38.913 25.3851Z" fill="#F8FBFF"/>
<path d="M41 29.5H0V27.827H41V29.5Z" fill="#F8FBFF"/>
</svg>
